<?xml version="1.0" encoding="UTF-8"?>
<!DOCTYPE svg PUBLIC "-//W3C//DTD SVG 1.1//EN" "http://www.w3.org/Graphics/SVG/1.1/DTD/svg11.dtd">
<!-- Creator: CorelDRAW 2021 (64-Bit Evaluation Version) -->
<svg xmlns="http://www.w3.org/2000/svg" xml:space="preserve" width="176.389mm" height="131.448mm" version="1.1" shape-rendering="geometricPrecision" text-rendering="geometricPrecision" image-rendering="optimizeQuality" fill-rule="evenodd" clip-rule="evenodd"
viewBox="0 0 4544.26 3386.46"
 xmlns:xlink="http://www.w3.org/1999/xlink"
 xmlns:xodm="http://www.corel.com/coreldraw/odm/2003">
 <g id="Layer_x0020_1">
  <metadata id="CorelCorpID_0Corel-Layer"/>
  <g id="_2707938988240">
   <g>
    <g>
     <polygon fill="#E6E6E6" fill-rule="nonzero" points="4544.26,2978.27 -0,2978.27 -0,2975.99 4544.26,2975.99 "/>
     <polygon fill="#E6E6E6" fill-rule="nonzero" points="1134.49,3115.77 833.46,3115.77 833.46,3113.5 1134.49,3113.5 "/>
     <polygon fill="#E6E6E6" fill-rule="nonzero" points="738.19,3115.77 563.76,3115.77 563.76,3113.5 738.19,3113.5 "/>
     <polygon fill="#E6E6E6" fill-rule="nonzero" points="1913.63,3149.22 1739.2,3149.22 1739.2,3146.95 1913.63,3146.95 "/>
     <polygon fill="#E6E6E6" fill-rule="nonzero" points="2823.04,3199.96 2430.48,3199.96 2430.48,3197.69 2823.04,3197.69 "/>
     <polygon fill="#E6E6E6" fill-rule="nonzero" points="2349.56,3199.96 2292.01,3199.96 2292.01,3197.69 2349.56,3197.69 "/>
     <polygon fill="#E6E6E6" fill-rule="nonzero" points="4120.21,3149.22 3268.84,3149.22 3268.84,3146.95 4120.21,3146.95 "/>
     <g>
      <path fill="#E6E6E6" fill-rule="nonzero" d="M2154.1 2570.66l-1754.98 0c-28.61,0 -51.88,-23.27 -51.88,-51.88l0 -2466.91c0,-28.6 23.27,-51.87 51.88,-51.87l1754.98 0c28.6,0 51.87,23.27 51.87,51.87l0 2466.91c0,28.61 -23.27,51.88 -51.87,51.88zm-1754.98 -2568.39l0 0c-27.35,0 -49.61,22.25 -49.61,49.6l0 2466.91c0,27.35 22.25,49.61 49.61,49.61l1754.98 0c27.34,0 49.6,-22.25 49.6,-49.61l0 -2466.91c0,-27.35 -22.25,-49.6 -49.6,-49.6l-1754.98 0z"/>
      <path fill="#E6E6E6" fill-rule="nonzero" d="M4119.92 2570.66l-1754.98 0c-28.6,0 -51.87,-23.27 -51.87,-51.88l0 -2466.91c0,-28.6 23.27,-51.87 51.87,-51.87l1754.98 0c28.61,0 51.88,23.27 51.88,51.87l0 2466.91c0,28.61 -23.27,51.88 -51.88,51.88zm-1754.98 -2568.39l0 0c-27.34,0 -49.6,22.25 -49.6,49.6l0 2466.91c0,27.35 22.25,49.61 49.6,49.61l1754.98 0c27.35,0 49.61,-22.25 49.61,-49.61l0 -2466.91c0,-27.35 -22.25,-49.6 -49.61,-49.6l-1754.98 0z"/>
     </g>
    </g>
    <g>
     <polygon fill="#DFDFDF" fill-rule="nonzero" points="2430.26,2992.47 2230.42,2992.47 2230.42,2199.64 2430.26,2199.64 "/>
     <polygon fill="#F9F9F9" fill-rule="nonzero" points="2392.3,2992.47 2430.26,2992.47 2430.26,2884.5 2352.51,2884.5 "/>
     <polygon fill="#DFDFDF" fill-rule="nonzero" points="1554.54,2992.47 1354.69,2992.47 1354.69,2199.64 1554.54,2199.64 "/>
     <polygon fill="#F9F9F9" fill-rule="nonzero" points="2430.26,2926.22 1521.41,2926.22 1521.41,2199.64 2430.26,2199.64 "/>
     <path fill="#DFDFDF" fill-rule="nonzero" d="M2397.3 2235.36l0 192.23 -842.94 0 0 -192.23 842.94 0zm3.51 -3.51l0 0 -849.96 0 0 199.25 849.96 0 0 -199.25z"/>
     <polygon fill="#F9F9F9" fill-rule="nonzero" points="1559.37,2992.47 1521.41,2992.47 1521.41,2884.5 1599.16,2884.5 "/>
     <path fill="#E6E6E6" fill-rule="nonzero" d="M1955.74 2331.47c0,11.1 9,20.1 20.1,20.1 11.1,0 20.1,-9 20.1,-20.1 0,-11.1 -9,-20.1 -20.1,-20.1 -11.1,0 -20.1,9 -20.1,20.1z"/>
     <path fill="#DFDFDF" fill-rule="nonzero" d="M2397.3 2466.81l0 192.23 -842.94 0 0 -192.23 842.94 0zm3.51 -3.51l0 0 -849.96 0 0 199.25 849.96 0 0 -199.25z"/>
     <path fill="#E6E6E6" fill-rule="nonzero" d="M1955.74 2562.93c0,11.1 9,20.1 20.1,20.1 11.1,0 20.1,-9 20.1,-20.1 0,-11.1 -9,-20.1 -20.1,-20.1 -11.1,0 -20.1,9 -20.1,20.1z"/>
     <path fill="#DFDFDF" fill-rule="nonzero" d="M2397.3 2698.27l0 192.23 -842.94 0 0 -192.23 842.94 0zm3.51 -3.51l0 0 -849.96 0 0 199.26 849.96 0 0 -199.26z"/>
     <path fill="#E6E6E6" fill-rule="nonzero" d="M1955.74 2794.39c0,11.1 9,20.1 20.1,20.1 11.1,0 20.1,-9 20.1,-20.1 0,-11.1 -9,-20.1 -20.1,-20.1 -11.1,0 -20.1,9 -20.1,20.1z"/>
    </g>
    <g>
     <polygon fill="#DFDFDF" fill-rule="nonzero" points="1432.44,2992.47 1232.59,2992.47 1232.59,1739.21 1432.44,1739.21 "/>
     <polygon fill="#F9F9F9" fill-rule="nonzero" points="1394.48,2992.47 1432.44,2992.47 1432.44,2884.5 1354.69,2884.5 "/>
     <polygon fill="#DFDFDF" fill-rule="nonzero" points="685.53,2992.47 485.68,2992.47 485.68,1739.21 685.53,1739.21 "/>
     <polygon fill="#F9F9F9" fill-rule="nonzero" points="1432.44,2926.22 652.4,2926.22 652.4,1739.21 1432.44,1739.21 "/>
     <path fill="#DFDFDF" fill-rule="nonzero" d="M1398.86 1772.82l0 268.75 -712.87 0 0 -268.75 712.87 0zm4.14 -4.14l0 0 -721.15 0 0 277.03 721.15 0 0 -277.03z"/>
     <path fill="#DFDFDF" fill-rule="nonzero" d="M1398.86 2074.23l0 712.87 -339.56 0 0 -712.87 339.56 0zm4.14 -4.14l0 0 -347.84 0 0 721.15 347.84 0 0 -721.15z"/>
     <path fill="#DFDFDF" fill-rule="nonzero" d="M1025.54 2074.23l0 712.87 -339.56 0 0 -712.87 339.56 0zm4.14 -4.14l0 0 -347.84 0 0 721.15 347.84 0 0 -721.15z"/>
     <polygon fill="#F9F9F9" fill-rule="nonzero" points="690.36,2992.47 652.4,2992.47 652.4,2884.5 730.15,2884.5 "/>
     <path fill="#E6E6E6" fill-rule="nonzero" d="M1022.32 1907.19c0,11.1 9,20.1 20.1,20.1 11.1,0 20.1,-9 20.1,-20.1 0,-11.1 -9,-20.1 -20.1,-20.1 -11.1,0 -20.1,9 -20.1,20.1z"/>
     <path fill="#E6E6E6" fill-rule="nonzero" d="M1094.29 2413.66c0,11.1 9,20.1 20.1,20.1 11.1,0 20.1,-9 20.1,-20.1 0,-11.1 -9,-20.1 -20.1,-20.1 -11.1,0 -20.1,9 -20.1,20.1z"/>
     <path fill="#E6E6E6" fill-rule="nonzero" d="M950.35 2413.66c0,11.1 9,20.1 20.1,20.1 11.1,0 20.1,-9 20.1,-20.1 0,-11.1 -9,-20.1 -20.1,-20.1 -11.1,0 -20.1,9 -20.1,20.1z"/>
    </g>
    <path fill="#DFDFDF" fill-rule="nonzero" d="M927.71 1389.78l-84.31 0c0,0 14.64,77.93 14.64,123.79 0,45.86 -64.13,225.64 27.52,225.64 91.64,0 27.52,-179.78 27.52,-225.64 0,-45.86 14.64,-123.79 14.64,-123.79z"/>
    <path fill="#F4F4F4" fill-rule="nonzero" d="M607.14 1574.09l0 54.78c0,60.69 49.65,110.34 110.34,110.34l54.78 0c60.69,0 110.34,-49.65 110.34,-110.34l0 -54.78 -275.46 0z"/>
    <path fill="#DFDFDF" fill-rule="nonzero" d="M1778.32 2084.1c0,63.54 71.17,115.54 158.16,115.54l78.52 0c86.99,0 158.17,-51.99 158.17,-115.54l-394.84 0z"/>
    <g>
     <path fill="#DFDFDF" fill-rule="nonzero" d="M3859.04 1991.08c-47.63,38.87 -113.35,110.05 -173.58,210.2 -40.11,66.69 -64.29,136.57 -74.91,228.9 0.23,-104.51 0.55,-216.8 0.92,-322.78 12.1,-27.27 39.73,-90.12 59.55,-139.78 66.14,-165.69 90.77,-206.43 150.25,-349.35 79.33,-190.62 160.63,-416.81 137.36,-398.73 -47.43,36.83 -229.21,377.21 -248.86,425.94 -67.58,167.58 -86.4,289.75 -98.1,407.64 0.37,-99.54 0.76,-190.93 1.13,-261.45 1.22,-230.01 5.13,-304.25 7.04,-327.14 7.36,-11.63 16.04,-25.19 21.1,-32.5 42.7,-61.74 59.17,-114.33 99.4,-206.41 57.01,-130.49 106.11,-362.15 91.75,-350.47 -59.76,48.65 -106.91,153.25 -168.85,286.53 -61.94,133.28 -44.23,209.93 -56.52,323.76 -2.58,22.34 -4.55,106.64 -5.98,223.47 -16.06,-124.47 -46.21,-206.49 -101.19,-281.03 -67.63,-91.68 -133.06,-153.61 -181.07,-185.95 -48.01,-32.34 82.9,192.86 145.5,291.15 55.75,87.53 107.1,164.77 136.06,240.85 -1.53,158.34 -2.24,358.84 -2.25,545.48 -14.36,-84.94 -37.81,-176.4 -69.09,-247.22 -37.59,-85.1 -95.43,-215.61 -141.45,-259.89 -11.06,-10.64 48.13,243.21 86.12,310.71 37.98,67.5 65.88,131.11 89.79,169.37 5.58,8.93 24.08,43.35 34.65,63.15 0.1,227.85 1.26,428.9 3.24,497.34l9.84 0c-0.67,-17.66 -0.78,-133.57 -0.57,-286.97 23.71,-83.29 77.91,-178.34 122.65,-265.06 48.83,-94.65 173.71,-348.62 126.09,-309.75z"/>
     <g>
      <polygon fill="#EFEFEF" fill-rule="nonzero" points="3748.47,2992.47 3463.6,2992.47 3442.1,2713.24 3769.97,2713.24 "/>
      <polygon fill="#F4F4F4" fill-rule="nonzero" points="3791.2,2745.78 3420.87,2745.78 3410.27,2651.57 3801.81,2651.57 "/>
     </g>
    </g>
    <g>
     <polygon fill="#DFDFDF" fill-rule="nonzero" points="1129.33,746.11 619.91,746.11 619.91,186.72 1129.33,186.72 "/>
     <polygon fill="#F4F4F4" fill-rule="nonzero" points="1184.51,746.11 658.31,746.11 658.31,186.72 1184.51,186.72 "/>
     <polygon fill="white" fill-rule="nonzero" points="702.39,702.03 702.39,230.8 1140.43,230.8 1140.43,702.03 "/>
     <polygon fill="#F4F4F4" fill-rule="nonzero" points="808.57,587.81 808.57,345.02 1034.26,345.02 1034.26,587.81 "/>
    </g>
    <g>
     <g>
      <polygon fill="#DFDFDF" fill-rule="nonzero" points="3726.75,771.58 3253.51,771.58 3253.51,251.93 3726.75,251.93 "/>
      <polygon fill="#F4F4F4" fill-rule="nonzero" points="3778.01,771.58 3289.19,771.58 3289.19,251.93 3778.01,251.93 "/>
      <polygon fill="white" fill-rule="nonzero" points="3330.14,730.63 3330.14,292.88 3737.06,292.88 3737.06,730.63 "/>
     </g>
     <path fill="#F4F4F4" fill-rule="nonzero" d="M3660.55 511.76c0,70.11 -56.84,126.95 -126.95,126.95 -70.11,0 -126.95,-56.84 -126.95,-126.95 0,-70.11 56.84,-126.95 126.95,-126.95 70.11,0 126.95,56.84 126.95,126.95z"/>
    </g>
    <g>
     <g>
      <polygon fill="#DFDFDF" fill-rule="nonzero" points="1658.56,935.23 1280.66,935.23 1280.66,520.27 1658.56,520.27 "/>
      <polygon fill="#F4F4F4" fill-rule="nonzero" points="1699.5,935.23 1309.15,935.23 1309.15,520.27 1699.5,520.27 "/>
      <polygon fill="white" fill-rule="nonzero" points="1341.85,902.53 1341.85,552.97 1666.79,552.97 1666.79,902.53 "/>
      <polygon fill="#F4F4F4" fill-rule="nonzero" points="1504.32,639.38 1415.45,793.31 1593.19,793.31 "/>
     </g>
    </g>
   </g>
   <g>
    <path fill="#F4F4F4" fill-rule="nonzero" d="M1222.03 1661.31c532,548.53 1231.19,928.86 1879.3,314.68 334.09,-316.61 775.62,-1171.82 339.94,-1563.15 -600.44,-539.33 -945.02,343.14 -1393.94,462.7 -307.72,81.96 -566.4,-390.44 -934.79,-75.02 -291.22,249.35 -111.67,632.75 109.49,860.78z"/>
   </g>
   <path fill="#F4F4F4" fill-rule="nonzero" d="M4034.29 3283.54c0,56.84 -788.95,102.91 -1762.16,102.91 -973.22,0 -1762.16,-46.07 -1762.16,-102.91 0,-56.83 788.94,-102.91 1762.16,-102.91 973.21,0 1762.16,46.08 1762.16,102.91z"/>
   <g>
    <path fill="#E4897B" fill-rule="nonzero" d="M3174.12 985.91l-90.15 -36.55c0,0 -118.97,216.97 -153.04,227.92 -46.37,14.9 -142.26,56.34 -199.24,64.11 -7.68,8.98 -20.34,37.3 -19.14,47.62 76.46,25.49 244.41,-8.36 280.36,-35.06 81.96,-60.88 181.22,-268.03 181.22,-268.03z"/>
    <g>
     <path fill="#3F7BFF" fill-rule="nonzero" d="M3201.88 936.69c16.77,62.16 -74.29,187.01 -74.29,187.01l-119.62 -67.1c0,0 22.3,-51.32 49.61,-103.59 44.09,-84.41 125.16,-87.25 144.31,-16.32z"/>
     <path fill="black" fill-rule="nonzero" fill-opacity="0.200000" d="M3201.88 936.69c16.77,62.16 -74.29,187.01 -74.29,187.01l-119.62 -67.1c0,0 22.3,-51.32 49.61,-103.59 44.09,-84.41 125.16,-87.25 144.31,-16.32z"/>
    </g>
    <path fill="black" fill-rule="nonzero" fill-opacity="0.200000" d="M3055.67 1083.31l46.98 26.34 8.22 -144.2c-27.27,21.01 -46.6,84.24 -55.2,117.86z"/>
    <g>
     <path fill="#3F7BFF" fill-rule="nonzero" d="M3123.38 889.86c0,0 -92.88,206.64 -38.73,591.45 110.28,0 312.34,0 366,0 5.82,-56.18 -13.42,-330.25 56.29,-594.98 0,0 -62,-12.59 -121.61,-15.47 -46.63,-2.25 -114.25,-3.75 -155.58,0.01 -54.49,4.95 -106.36,18.99 -106.36,18.99z"/>
     <path fill="black" fill-rule="nonzero" fill-opacity="0.200000" d="M3123.38 889.86c0,0 -92.88,206.64 -38.73,591.45 110.28,0 312.34,0 366,0 5.82,-56.18 -13.42,-330.25 56.29,-594.98 0,0 -62,-12.59 -121.61,-15.47 -46.63,-2.25 -114.25,-3.75 -155.58,0.01 -54.49,4.95 -106.36,18.99 -106.36,18.99z"/>
    </g>
    <path fill="#E8EBF0" fill-rule="nonzero" d="M3038.5 3291.76c-0.57,9.76 138.19,17.67 309.94,17.67 171.74,0 311.44,-7.91 312.01,-17.67 0.57,-9.76 -138.19,-17.67 -309.94,-17.67 -171.74,0 -311.44,7.91 -312.01,17.67z"/>
    <polygon fill="#E4897B" fill-rule="nonzero" points="3347.5,3191.39 3282.36,3216.48 3226.4,3071.56 3291.53,3046.47 "/>
    <polygon fill="#E4897B" fill-rule="nonzero" points="3572.25,3221.89 3503.82,3221.89 3478.72,3063.43 3547.15,3063.43 "/>
    <path fill="#263138" fill-rule="nonzero" d="M3499.42 3213.97l76.88 0c2.8,0 5.11,1.94 5.55,4.67l9.95 60.82c1.03,6.31 -4.28,12.28 -10.73,12.17 -26.81,-0.46 -39.76,-2.04 -73.57,-2.04 -20.8,0 -63.78,2.16 -92.5,2.16 -28.09,0 -30.81,-28.4 -18.9,-30.97 53.4,-11.53 74.19,-27.44 91.96,-42.61 3.2,-2.74 7.26,-4.21 11.35,-4.21z"/>
    <path fill="#263138" fill-rule="nonzero" d="M3271.61 3190.01l72.9 -21.19c2.73,-0.79 5.53,0.39 6.75,2.83l27.01 54.5c2.8,5.65 -0.51,12.74 -6.84,14.46 -26.4,7.2 -44.16,11.72 -77.21,21.32 -22.84,6.64 -46.07,17.45 -68.63,24.64 -15.63,4.98 -52.31,5.18 -71.32,5.18 -28.09,0 -34.35,-29.62 -22.32,-30.97 30.47,-3.42 34.56,-1.83 51.38,-10.27 27.81,-13.95 49.32,-25.51 73.4,-50.72 4.2,-4.4 9.11,-8.11 14.87,-9.79z"/>
    <path fill="#E4897B" fill-rule="nonzero" d="M2743.21 1240.73l-75.3 -31.68 -31 83.42c0,0 43.45,7.88 93.08,0l13.22 -51.73z"/>
    <polygon fill="#E4897B" fill-rule="nonzero" points="2611.95,1207 2609.97,1262.5 2636.92,1292.47 2667.92,1209.05 "/>
    <g>
     <polygon fill="#CF6E64" fill-rule="nonzero" points="3226.43,3071.6 3255.27,3146.3 3320.42,3121.2 3291.59,3046.49 "/>
     <polygon fill="#CF6E64" fill-rule="nonzero" points="3547.17,3063.47 3478.71,3063.47 3491.69,3145.15 3560.14,3145.15 "/>
    </g>
    <path fill="black" fill-rule="nonzero" fill-opacity="0.200000" d="M3073.04 1377.22c1.31,16.44 2.9,33.25 4.86,50.53l272.15 -88.35c42.49,-12.7 79.48,-39.41 104.69,-75.93 1.03,-24.28 2.43,-49.78 4.48,-76.4 0.94,-12.98 2.06,-26.24 3.27,-39.7 1.31,-14.01 2.8,-28.3 4.49,-42.68l-393.94 272.53z"/>
    <path fill="white" fill-rule="nonzero" d="M3161.89 1079.13l-9.27 -1.1c5.4,-45.35 39.25,-81.19 75.02,-80.34l-0.27 9.34c-30.87,-0.89 -60.62,31.44 -65.48,72.11z"/>
    <path fill="white" fill-rule="nonzero" d="M3210.31 1163.05c-0.51,0 -1.02,-0.01 -1.53,-0.02l0.27 -9.34c31.26,1.15 60.62,-31.43 65.48,-72.11l9.27 1.11c-5.33,44.7 -38.11,80.36 -73.49,80.36z"/>
    <path fill="#E4897B" fill-rule="nonzero" d="M3380.18 695.68c-12.75,50.06 -27.92,141.78 5.14,175.19 0,0 -23.09,50.78 -116.11,50.78 -85,0 -39.47,-50.78 -39.47,-50.78 56.61,-13.33 57.59,-54.75 50.15,-93.64l100.29 -81.55z"/>
    <path fill="#CF6E64" fill-rule="nonzero" d="M3339.29 728.95l-59.35 48.23c1.79,9.21 3.06,18.54 3.18,27.62 17.35,17.28 52.17,-26.49 55.75,-48.82 1.78,-11.13 1.94,-21.84 0.43,-27.03z"/>
    <path fill="#CF6E64" fill-rule="nonzero" d="M3177.92 695.06c8.7,15.58 24.05,25.27 38.56,28.5 21.82,4.86 32.79,-15.22 26.77,-35.42 -5.42,-18.18 -23.29,-42.62 -45.22,-38.44 -21.6,4.13 -30.06,27.54 -20.11,45.35z"/>
    <path fill="#263138" fill-rule="nonzero" d="M3213.94 534.84c-33.99,15.57 -45.97,150.61 -3.24,170.57 42.73,19.96 67.62,-200.07 3.24,-170.57z"/>
    <path fill="#E4897B" fill-rule="nonzero" d="M3390.55 620.34c-8.14,67.78 -9.47,107.67 -45.74,142.46 -54.57,52.33 -136.41,21.29 -148.62,-46.37 -10.99,-60.9 4.16,-161.52 72.1,-188.5 66.93,-26.57 130.4,24.62 122.26,92.41z"/>
    <path fill="#263138" fill-rule="nonzero" d="M3278.89 569.96c50.28,-12.86 87.28,-21.62 74.08,20.35 -17.59,55.91 -38.7,110.08 -10.39,112.6 17.21,1.53 93.57,-30.86 83.87,-63.62 -8.45,-28.54 27.05,-36.23 33.59,-50.79 23.57,-52.4 -43.78,-45.6 -31.79,-77.31 11.67,-30.87 -54.25,-83.05 -90.77,-57.56 -59.13,41.27 -160.73,40.68 -107.31,-27.01 38.26,-48.48 -30,-38.53 -30,-38.53 0,0 41.23,24.45 -28.17,62.26 -73.56,40.08 -6.22,148.54 106.89,119.61z"/>
    <path fill="#E4897B" fill-rule="nonzero" d="M3416.79 695.06c-10.53,15.58 -27.01,25.27 -41.9,28.5 -22.39,4.86 -31.01,-15.22 -22.62,-35.42 7.55,-18.18 28.3,-42.62 49.73,-38.44 21.12,4.13 26.83,27.54 14.79,45.35z"/>
    <path fill="#3F7BFF" fill-rule="nonzero" d="M3084.65 1481.31c0,0 -61.43,549.83 -66.22,758.5 -4.99,217.05 208.2,894.26 208.2,894.26l109.16 -45.84c0,0 -127.1,-618.69 -109.45,-831.85 19.25,-232.39 98.9,-775.07 98.9,-775.07l-240.59 0z"/>
    <path fill="black" fill-rule="nonzero" fill-opacity="0.200000" d="M3237.32 1632.29c-48.94,101.61 -15.97,302.5 10.55,421.58 10.09,-84.06 22.04,-175.3 33.43,-259.73 -1.12,-129.82 -11.21,-230.03 -43.99,-161.85z"/>
    <path fill="#3F7BFF" fill-rule="nonzero" d="M3330.85 3052.58c0.5,-0.21 12.94,34.79 12.94,34.79l-125.82 52.83 -19.82 -36.86 132.7 -50.77z"/>
    <path fill="#3F7BFF" fill-rule="nonzero" d="M3214.48 1481.31c0,0 47,522.93 78.15,718.85 34.1,214.54 168.09,929.18 168.09,929.18l125.33 0c0,0 -75.1,-697.32 -89.28,-909.73 -15.4,-230.54 -46.12,-738.3 -46.12,-738.3l-236.16 0z"/>
    <path fill="#3F7BFF" fill-rule="nonzero" d="M3587.96 3096.67c0.54,0 4.19,35.02 4.19,35.02l-137.76 0 -9.84 -40.21 143.4 5.19z"/>
    <path fill="black" fill-rule="nonzero" fill-opacity="0.200000" d="M3539.95 3055.28c-0.59,0 -1.09,-0.45 -1.16,-1.04 -0.68,-6.34 -68.41,-635.9 -81.14,-826.74 -13.83,-207.1 -41.63,-666.3 -41.91,-670.91 -0.04,-0.64 0.45,-1.2 1.09,-1.24 0.03,0 0.06,0 0.07,0 0.61,0 1.13,0.48 1.17,1.1 0.27,4.61 28.07,463.8 41.91,670.88 12.73,190.8 80.44,820.32 81.13,826.65 0.07,0.65 -0.39,1.22 -1.03,1.29 -0.04,0.01 -0.09,0.01 -0.13,0.01z"/>
    <path fill="#263138" fill-rule="nonzero" d="M3286.63 639.29c-0.32,5.52 -3.51,9.99 -7.12,9.99 -3.61,0 -6.27,-4.47 -5.95,-9.99 0.32,-5.52 3.51,-9.99 7.12,-9.99 3.61,0 6.27,4.47 5.95,9.99z"/>
    <path fill="#263138" fill-rule="nonzero" d="M3224.24 639.29c-0.32,5.52 -3.51,9.99 -7.12,9.99 -3.61,0 -6.27,-4.47 -5.95,-9.99 0.32,-5.52 3.51,-9.99 7.12,-9.99 3.61,0 6.27,4.47 5.95,9.99z"/>
    <path fill="#DF5652" fill-rule="nonzero" d="M3243.91 642.04c0,0 -14.42,31.84 -29.13,47.21 9.23,9.11 26.07,4.95 26.07,4.95l3.06 -52.15z"/>
    <path fill="#263138" fill-rule="nonzero" d="M3245.5 717.34c-0.89,0 -1.58,-0.73 -1.53,-1.62 0.05,-0.89 0.82,-1.62 1.72,-1.62 24.23,0 36.53,-16.92 36.65,-17.09 0.54,-0.75 1.56,-0.96 2.27,-0.47 0.72,0.49 0.87,1.49 0.34,2.24 -0.54,0.75 -13.48,18.56 -39.45,18.56z"/>
    <path fill="#263138" fill-rule="nonzero" d="M3297.72 622.5c-0.93,0.36 -1.99,0.31 -2.86,-0.24 -11.92,-7.5 -23.04,-2.47 -23.15,-2.41 -1.53,0.79 -3.56,0.1 -4.24,-1.52 -0.68,-1.62 0.12,-3.55 1.78,-4.33 0.58,-0.28 14.51,-6.6 29.3,2.72 1.48,0.93 1.84,2.93 0.83,4.45 -0.42,0.63 -1,1.08 -1.66,1.33z"/>
    <path fill="#263138" fill-rule="nonzero" d="M3200.12 604.38c-0.45,-0.13 -0.88,-0.36 -1.23,-0.7 -1.27,-1.19 -1.27,-3.23 0,-4.57 12.69,-13.4 27.39,-11.36 28.01,-11.27 1.72,0.19 2.88,1.91 2.51,3.69 -0.37,1.76 -2.08,2.98 -3.83,2.73 -0.49,-0.07 -11.97,-1.54 -22.1,9.16 -0.9,0.96 -2.22,1.29 -3.35,0.97z"/>
    <path fill="#E4897B" fill-rule="nonzero" d="M3542.06 975.78l-94.55 -25.17c0,0 -92.7,228.19 -125.45,243.09 -44.56,20.28 -157.39,90.41 -205.33,124.22 -2.66,11.31 -0.57,41.45 5.46,49.65 81.53,-14.82 238.39,-75.12 271.1,-105.77 74.59,-69.88 148.77,-286.03 148.77,-286.03z"/>
    <path fill="#3F7BFF" fill-rule="nonzero" d="M3476.1 3225.91c-5.21,0 -10.03,-0.89 -12.97,-3.48 -2.33,-2.06 -3.29,-4.95 -2.85,-8.57 0.32,-2.7 1.83,-3.98 3.04,-4.58 7.72,-3.87 29.07,9.67 31.48,11.23 0.53,0.35 0.78,1 0.64,1.65 -0.14,0.63 -0.66,1.15 -1.3,1.3 -4.82,1.15 -11.72,2.46 -18.05,2.46zm-9.34 -14.16l0 0c-0.85,0 -1.56,0.13 -2.13,0.41 -0.45,0.23 -0.98,0.65 -1.13,1.9 -0.31,2.58 0.29,4.51 1.85,5.89 3.55,3.15 12.46,3.57 24.22,1.23 -7.46,-4.47 -17.57,-9.42 -22.82,-9.42z"/>
    <path fill="#3F7BFF" fill-rule="nonzero" d="M3493.76 3223.51c-0.27,0 -0.53,-0.06 -0.76,-0.19 -6.86,-3.85 -19.67,-18.84 -17.77,-26.48 0.34,-1.38 1.5,-3.77 5.41,-4.24 2.56,-0.32 4.81,0.39 6.78,2.08 7.57,6.49 8.05,26.25 8.06,27.08 0.02,0.6 -0.3,1.16 -0.82,1.48 -0.28,0.18 -0.58,0.27 -0.9,0.27zm-12.18 -27.74l0 0c-0.24,0 -0.48,0.03 -0.74,0.05 -2.12,0.26 -2.36,1.23 -2.46,1.63 -1.13,4.51 6.93,15.84 13.66,21.18 -0.46,-5.77 -1.97,-17.28 -6.82,-21.45 -1.11,-0.95 -2.3,-1.42 -3.64,-1.42z"/>
    <path fill="#3F7BFF" fill-rule="nonzero" d="M3234.76 3214.61c-6.69,1.62 -13.07,2.1 -17.14,-0.11 -2.59,-1.4 -4.08,-3.74 -4.42,-6.94 -0.21,-1.9 0.43,-3.58 1.85,-4.82 7.32,-6.52 36.97,0.49 40.33,1.3 0.66,0.16 1.12,0.73 1.15,1.42 0.03,0.69 -0.38,1.34 -1.02,1.63 -5.5,2.5 -13.32,5.71 -20.75,7.51zm-14.77 -10.8l0 0c-1.24,0.3 -2.22,0.73 -2.87,1.3 -0.57,0.51 -0.78,1.09 -0.69,1.93 0.24,2.17 1.18,3.67 2.88,4.6 4.83,2.62 16.03,0.55 30.46,-5.49 -10.14,-2.12 -23.39,-3.88 -29.77,-2.33z"/>
    <path fill="#3F7BFF" fill-rule="nonzero" d="M3255.2 3207.2c-0.23,0.05 -0.45,0.06 -0.68,0.02 -8.81,-1.63 -27.62,-12.09 -27.79,-19.91 -0.04,-1.83 0.82,-4.34 5.12,-5.83 3.13,-1.17 6.34,-0.94 9.36,0.55 9.87,4.87 15.04,22.32 15.26,23.06 0.15,0.54 0.01,1.14 -0.39,1.59 -0.24,0.26 -0.54,0.44 -0.87,0.52zm-21.49 -22.95l0 0c-0.31,0.07 -0.63,0.18 -0.95,0.28 -2.82,0.99 -2.79,2.14 -2.78,2.53 0.11,4.69 13.17,13.32 22.39,16.23 -1.84,-5.02 -6.25,-15.14 -12.73,-18.33 -1.96,-0.97 -3.9,-1.2 -5.93,-0.71z"/>
    <path fill="#E4897B" fill-rule="nonzero" d="M3124.43 1312.56l-94.78 43.63 -11 26.74 35.03 23.57c0,0 65.37,-7.12 83.99,-49.12l-13.24 -44.82z"/>
    <path fill="#263138" fill-rule="nonzero" d="M3128.47 1369.12c-5.93,-35.2 -17.5,-51.27 -17.61,-51.43l14.94 -11.2c0.58,0.77 14.32,19.32 21.09,59.53l-18.42 3.1z"/>
    <path fill="#263138" fill-rule="nonzero" d="M3144.61 1325.45c3.07,7.6 -1.87,16.77 -11.03,20.48 -9.17,3.7 -19.09,0.54 -22.16,-7.06 -3.07,-7.6 1.87,-16.77 11.03,-20.47 9.17,-3.7 19.09,-0.54 22.16,7.06z"/>
    <polygon fill="#E4897B" fill-rule="nonzero" points="2965.62,1391.41 2978.21,1404.16 3063.25,1367.79 3029.66,1356.19 "/>
    <path fill="black" fill-rule="nonzero" fill-opacity="0.200000" d="M3330.85 3052.58c0.5,-0.21 12.94,34.79 12.94,34.79l-125.82 52.83 -19.82 -36.86 132.7 -50.77z"/>
    <path fill="black" fill-rule="nonzero" fill-opacity="0.200000" d="M3587.96 3096.67c0.54,0 4.19,35.02 4.19,35.02l-137.76 0 -9.84 -40.21 143.4 5.19z"/>
    <g>
     <path fill="#3F7BFF" fill-rule="nonzero" d="M3566.71 949.63c25.01,80.59 -72.34,190.68 -72.34,190.68l-134.95 -55.08c0,0 19.02,-58.55 55.2,-136.99 41.13,-89.16 126.85,-79.95 152.09,1.38z"/>
     <path fill="black" fill-rule="nonzero" fill-opacity="0.200000" d="M3566.71 949.63c25.01,80.59 -72.34,190.68 -72.34,190.68l-134.95 -55.08c0,0 19.02,-58.55 55.2,-136.99 41.13,-89.16 126.85,-79.95 152.09,1.38z"/>
    </g>
   </g>
   <g>
    <polygon fill="#3F7BFF" fill-rule="nonzero" points="2225.55,151.28 2167.5,151.28 2167.5,141.93 2225.55,141.93 "/>
    <polygon fill="#3F7BFF" fill-rule="nonzero" points="2979.73,668.8 2970.41,668.38 2977.37,512.42 2986.69,512.84 "/>
    <polygon fill="#3F7BFF" fill-rule="nonzero" points="2959.33,183.96 1886.9,183.96 1787.07,2417.18 2859.5,2417.18 "/>
    <polygon fill="#F9F9F9" fill-rule="nonzero" fill-opacity="0.560784" points="2927.32,214.61 1854.89,214.61 1755.05,2447.83 2827.49,2447.83 "/>
    <polygon fill="#3F7BFF" fill-rule="nonzero" fill-opacity="0.070588" points="2895.31,245.25 1822.87,245.25 1723.04,2478.47 2795.47,2478.47 "/>
    <polygon fill="white" fill-rule="nonzero" points="2773.23,1219.25 1857.86,1219.25 1850.22,1390.17 2765.59,1390.17 "/>
    <polygon fill="#3F7BFF" fill-rule="nonzero" points="2361.33,1094.6 1863.44,1094.6 1860.02,1171.07 2357.91,1171.07 "/>
    <polygon fill="white" fill-rule="nonzero" points="2752.62,1680.43 1837.25,1680.43 1829.6,1851.35 2744.97,1851.35 "/>
    <polygon fill="#3F7BFF" fill-rule="nonzero" fill-opacity="0.470588" points="2584.75,2082.03 1969.21,2082.03 1960.05,2286.87 2575.6,2286.87 "/>
    <path fill="white" fill-rule="nonzero" d="M2543.58 2318.6l-615.55 0c-0.29,0 -0.57,-0.13 -0.79,-0.34 -0.2,-0.21 -0.31,-0.5 -0.29,-0.79l9.16 -204.85c0.02,-0.58 0.5,-1.04 1.07,-1.04l615.55 0c0.29,0 0.57,0.13 0.79,0.34 0.2,0.21 0.31,0.5 0.29,0.79l-9.16 204.85c-0.02,0.58 -0.5,1.04 -1.08,1.04zm-614.42 -2.17l0 0 613.38 0 9.06 -202.68 -613.39 0 -9.06 202.68z"/>
    <polygon fill="#3F7BFF" fill-rule="nonzero" points="2253.75,1555.78 1842.82,1555.78 1839.4,1632.25 2250.33,1632.25 "/>
    <path fill="white" fill-rule="nonzero" d="M2573.01 667.33c-2.29,51.18 -20.84,98.44 -50.57,136.82 -44.91,58.19 -115.24,96.01 -192.67,96.01 -77.42,0 -144.28,-37.82 -183.99,-96.01 -26.3,-38.39 -40.63,-85.64 -38.34,-136.82 5.75,-128.6 114.64,-232.83 243.14,-232.83 128.61,0 228.18,104.23 222.43,232.83z"/>
    <path fill="#3F7BFF" fill-rule="nonzero" d="M2594.91 483.24c-0.61,13.6 -5.54,26.16 -13.44,36.36 -11.93,15.46 -30.62,25.51 -51.2,25.51 -20.57,0 -38.34,-10.05 -48.89,-25.51 -6.99,-10.2 -10.8,-22.76 -10.19,-36.36 1.53,-34.17 30.46,-61.87 64.61,-61.87 34.17,0 60.63,27.69 59.1,61.87z"/>
    <path fill="#263138" fill-rule="nonzero" d="M1956.44 1304.71c-0.68,15.13 -13.49,27.39 -28.61,27.39 -15.13,0 -26.84,-12.26 -26.16,-27.39 0.68,-15.13 13.49,-27.39 28.61,-27.39 15.12,0 26.84,12.26 26.16,27.39z"/>
    <path fill="#263138" fill-rule="nonzero" d="M2079.02 1304.71c-0.68,15.13 -13.49,27.39 -28.61,27.39 -15.13,0 -26.84,-12.26 -26.16,-27.39 0.67,-15.13 13.48,-27.39 28.61,-27.39 15.13,0 26.84,12.26 26.16,27.39z"/>
    <path fill="#263138" fill-rule="nonzero" d="M2201.6 1304.71c-0.67,15.13 -13.49,27.39 -28.61,27.39 -15.13,0 -26.84,-12.26 -26.16,-27.39 0.67,-15.13 13.48,-27.39 28.61,-27.39 15.13,0 26.84,12.26 26.16,27.39z"/>
    <path fill="#263138" fill-rule="nonzero" d="M1935.83 1765.9c-0.68,15.12 -13.49,27.38 -28.61,27.38 -15.13,0 -26.84,-12.26 -26.16,-27.38 0.67,-15.13 13.49,-27.39 28.61,-27.39 15.13,0 26.84,12.26 26.16,27.39z"/>
    <path fill="#263138" fill-rule="nonzero" d="M2058.4 1765.9c-0.67,15.12 -13.48,27.38 -28.61,27.38 -15.13,0 -26.84,-12.26 -26.16,-27.38 0.68,-15.13 13.49,-27.39 28.61,-27.39 15.13,0 26.84,12.26 26.16,27.39z"/>
    <path fill="#263138" fill-rule="nonzero" d="M2180.99 1765.9c-0.68,15.12 -13.49,27.38 -28.61,27.38 -15.13,0 -26.84,-12.26 -26.16,-27.38 0.68,-15.13 13.49,-27.39 28.61,-27.39 15.13,0 26.84,12.26 26.16,27.39z"/>
    <path fill="#263138" fill-rule="nonzero" d="M2303.56 1765.9c-0.68,15.12 -13.49,27.38 -28.61,27.38 -15.13,0 -26.84,-12.26 -26.16,-27.38 0.68,-15.13 13.49,-27.39 28.61,-27.39 15.13,0 26.84,12.26 26.16,27.39z"/>
    <path fill="#263138" fill-rule="nonzero" d="M2426.14 1765.9c-0.68,15.12 -13.49,27.38 -28.61,27.38 -15.13,0 -26.84,-12.26 -26.16,-27.38 0.67,-15.13 13.48,-27.39 28.61,-27.39 15.12,0 26.84,12.26 26.16,27.39z"/>
    <g>
     <path fill="#3F7BFF" fill-rule="nonzero" d="M2437.87 589.51c-2.33,52.01 -46.37,94.17 -98.38,94.17 -52.01,0 -92.28,-42.16 -89.96,-94.17 2.32,-52.01 46.37,-94.17 98.38,-94.17 52.01,0 92.28,42.16 89.96,94.17z"/>
     <path fill="#3F7BFF" fill-rule="nonzero" d="M2522.43 804.16c-44.91,58.19 -115.24,96.01 -192.67,96.01 -77.42,0 -144.28,-37.82 -183.99,-96.01 44.18,-43.99 114.1,-72.57 191.53,-72.57 77.51,0 144.88,28.58 185.13,72.57z"/>
     <path fill="white" fill-rule="nonzero" fill-opacity="0.101961" d="M2437.87 589.51c-2.33,52.01 -46.37,94.17 -98.38,94.17 -52.01,0 -92.28,-42.16 -89.96,-94.17 2.32,-52.01 46.37,-94.17 98.38,-94.17 52.01,0 92.28,42.16 89.96,94.17z"/>
     <path fill="white" fill-rule="nonzero" fill-opacity="0.101961" d="M2522.43 804.16c-44.91,58.19 -115.24,96.01 -192.67,96.01 -77.42,0 -144.28,-37.82 -183.99,-96.01 44.18,-43.99 114.1,-72.57 191.53,-72.57 77.51,0 144.88,28.58 185.13,72.57z"/>
    </g>
   </g>
   <g>
    <g>
     <path fill="#E4897B" fill-rule="nonzero" d="M1185.21 1431.35c-8.61,18.87 -17.67,39.64 -25.62,59.9 -8.02,20.45 -16.02,40.92 -22.99,61.67 -13.54,41.51 -26.24,83.42 -32.49,125.43l-2.07 13.38c-0.16,1.61 -0.04,3.9 0.66,6.77 1.33,5.77 4.93,13.5 9.99,21.08 10.23,15.33 24.74,30.86 40.38,45.27 15.61,14.64 32.56,28.64 50.17,41.94 17.44,13.42 35.83,26.55 53.83,38.85l-16.94 31.89c-43.24,-18.9 -83.51,-41.51 -122.52,-69.87 -19.18,-14.62 -38.12,-30.35 -54.9,-51.61 -8.27,-10.73 -16.4,-22.84 -21.73,-38.83 -2.59,-7.98 -4.38,-17.01 -4.39,-26.76 0.06,-2.25 0.18,-5.4 0.34,-6.91l0.45 -4.51 0.91 -9.03c4.94,-48.18 15.62,-94.49 29.68,-139.4 7.08,-22.43 14.65,-44.63 23.29,-66.42 8.81,-21.93 17.51,-42.98 28.53,-65.06l65.4 32.22z"/>
     <path fill="#E4897B" fill-rule="nonzero" d="M1244.34 1840.24l64.22 -32.58 -16.59 70.59c0,0 -44.1,12.31 -64.61,-9.08l16.98 -28.92z"/>
     <polygon fill="#E4897B" fill-rule="nonzero" points="1367.38,1819.24 1350.29,1877.59 1291.98,1878.24 1308.56,1807.65 "/>
     <path fill="#DF5652" fill-rule="nonzero" d="M1458.09 1091.06c0,0 5.58,20.48 14.41,35.93 -7.59,7.09 -14.41,4.62 -14.41,4.62l0 -40.56z"/>
     <path fill="#263138" fill-rule="nonzero" d="M1449.39 1081.18c0,5.75 3.05,10.42 6.81,10.42 3.76,0 6.81,-4.66 6.81,-10.42 0,-5.75 -3.05,-10.41 -6.81,-10.41 -3.76,0 -6.81,4.66 -6.81,10.41z"/>
     <path fill="#263138" fill-rule="nonzero" d="M1454.53 1071.09l13.81 -3.98c0,0 -7.09,10.79 -13.81,3.98z"/>
     <path fill="#E4897B" fill-rule="nonzero" d="M1280.54 1157.73c8.3,42.31 16.57,119.83 -13.03,148.06 0,0 11.56,42.92 90.18,42.92 86.45,0 41.31,-42.92 41.31,-42.92 -47.18,-11.27 -45.96,-46.27 -37.74,-79.15l-80.72 -68.92z"/>
     <path fill="#E4897B" fill-rule="nonzero" d="M1257.6 1061.44c4.34,70.63 4.67,100.62 40.34,136.87 53.66,54.53 139.47,33.76 156.32,-36.75 15.17,-63.46 5.53,-168.31 -63.61,-196.42 -68.11,-27.69 -137.39,25.66 -133.05,96.29z"/>
     <path fill="#263138" fill-rule="nonzero" d="M1264.57 981.52c-35.42,12.91 -82.67,3.31 -64.13,112.63 19.63,115.75 -10.59,153.84 -10.59,153.84 0,0 134.44,28.64 271.67,-1.71 0,0 -41.9,-73.28 -30.14,-126.74 14.99,-68.19 3.11,-93.4 3.11,-93.4 0,0 -120.12,-62.78 -169.93,-44.62z"/>
     <path fill="#E4897B" fill-rule="nonzero" d="M1414.54 1098.25c-0.15,14 4.76,28.09 11.13,37.88 9.57,14.73 20.93,8.73 23.77,-6.56 2.56,-13.76 0.66,-38.01 -11.6,-47.41 -12.08,-9.26 -23.14,0.08 -23.3,16.09z"/>
     <path fill="#263138" fill-rule="nonzero" d="M1233.8 993.88c-10.23,-28.58 38.35,-72.55 141.02,-54.26 102.68,18.28 107.19,103.68 107.19,103.68l-20.78 -24.65 0.93 25.96 -105.52 20.28 -122.84 -71.01z"/>
     <g>
      <path fill="#3F7BFF" fill-rule="nonzero" d="M1242.51 1310.59c-1.41,-8.73 4.45,-16.96 13.18,-18.4 31.98,-5.28 104.65,-15.97 141.23,-10.91 27.17,3.77 34.36,19.63 35.51,32.61 0.85,9.62 -7.11,17.74 -16.76,17.3l-158.04 -7.14c-7.59,-0.34 -13.9,-5.96 -15.12,-13.47z"/>
      <path fill="black" fill-rule="nonzero" fill-opacity="0.600000" d="M1242.51 1310.59c-1.41,-8.73 4.45,-16.96 13.18,-18.4 31.98,-5.28 104.65,-15.97 141.23,-10.91 27.17,3.77 34.36,19.63 35.51,32.61 0.85,9.62 -7.11,17.74 -16.76,17.3l-158.04 -7.14c-7.59,-0.34 -13.9,-5.96 -15.12,-13.47z"/>
     </g>
     <polygon fill="#E4897B" fill-rule="nonzero" points="1333.84,2898.41 1392.41,2939.07 1490.49,2806.15 1431.92,2765.48 "/>
     <polygon fill="#E4897B" fill-rule="nonzero" points="1197.1,2895.72 1259.06,2931.01 1345.87,2790.42 1283.91,2755.14 "/>
     <g>
      <polygon fill="#CF6E64" fill-rule="nonzero" points="1490.45,2806.17 1439.9,2874.7 1381.31,2834.02 1431.85,2765.49 "/>
      <polygon fill="#CF6E64" fill-rule="nonzero" points="1283.87,2755.17 1345.86,2790.47 1301.08,2862.91 1239.09,2827.62 "/>
     </g>
     <g>
      <path fill="#3F7BFF" fill-rule="nonzero" d="M1383.26 1754.41c0,0 228.85,288.42 185.92,564.23 -34.68,222.77 -235.51,524.43 -235.51,524.43l-94.43 -46.94c0,0 102.6,-200.47 169.97,-412.99 28.25,-89.12 16.21,-187.31 -36.61,-264.45 -115.93,-169.32 -301.65,-68.58 -176.72,-364.29l187.38 0z"/>
      <path fill="black" fill-rule="nonzero" fill-opacity="0.600000" d="M1383.26 1754.41c0,0 228.85,288.42 185.92,564.23 -34.68,222.77 -235.51,524.43 -235.51,524.43l-94.43 -46.94c0,0 102.6,-200.47 169.97,-412.99 28.25,-89.12 16.21,-187.31 -36.61,-264.45 -115.93,-169.32 -301.65,-68.58 -176.72,-364.29l187.38 0z"/>
     </g>
     <path fill="black" fill-rule="nonzero" fill-opacity="0.400000" d="M1495.51 1939.74l-33.25 -33.06c0,2.61 64.44,400.38 82.56,512.18 10.93,-34.27 19.33,-68.08 24.38,-100.21 21.01,-135.05 -23.16,-273.18 -73.69,-378.9z"/>
     <g>
      <path fill="#3F7BFF" fill-rule="nonzero" d="M1485.47 1754.41c0,0 275.55,362.45 283.3,579.8 6.49,182.12 -300.15,533.91 -300.15,533.91l-89.03 -57.59c0,0 179.31,-250.09 224.45,-454.52 -17.21,-202.36 -386.64,-601.59 -386.64,-601.59l268.07 0z"/>
      <path fill="black" fill-rule="nonzero" fill-opacity="0.600000" d="M1485.47 1754.41c0,0 275.55,362.45 283.3,579.8 6.49,182.12 -300.15,533.91 -300.15,533.91l-89.03 -57.59c0,0 179.31,-250.09 224.45,-454.52 -17.21,-202.36 -386.64,-601.59 -386.64,-601.59l268.07 0z"/>
     </g>
     <path fill="#3F7BFF" fill-rule="nonzero" d="M1144.54 1321.99c-29.51,6.96 -57.71,114.09 -57.71,114.09l115.08 76.83c0,0 38.35,-84.67 24.96,-121.76 -13.94,-38.63 -45.07,-77.95 -82.34,-69.15z"/>
     <path fill="black" fill-rule="nonzero" fill-opacity="0.200000" d="M1167.07 1390.92l-8.04 93.33 42.85 28.68c0,0 20.08,-44.36 26.06,-83.03l-60.86 -38.98z"/>
     <path fill="#3F7BFF" fill-rule="nonzero" d="M1519.54 1324.06c0,0 33.97,11.97 -34.07,430.35 -114.91,0 -233.67,0 -289.59,0 4.86,-117.86 5,-190.54 -51.33,-432.41 0,0 60.68,-13.2 122.97,-16.2 48.73,-2.35 88.65,-3.9 131.5,0.01 56.48,5.16 120.53,18.26 120.53,18.26z"/>
     <path fill="#E4897B" fill-rule="nonzero" d="M1548.95 1390.5c6.56,18.13 13.5,37.74 20.73,56.58 6.93,19.12 14.13,38.19 21.56,57.19l22.28 57.09 5.63 14.27 2.83 7.13 1.41 3.57c0.25,0.64 0.2,0.58 0.11,0.52 -0.39,-0.17 -0.72,-1.97 -6.36,-5.67 -2.76,-1.72 -7.4,-3.37 -11.87,-3.47 -4.5,-0.16 -8.06,0.93 -10.1,1.83 -4.1,1.96 -4.17,2.8 -4.07,2.66 0.26,-0.14 1.11,-0.94 2.04,-2.06 3.97,-4.77 8.77,-13 12.98,-21.18 4.3,-8.34 8.36,-17.24 12.41,-26.27 8.04,-18.12 15.36,-37.01 22.81,-55.95 7.36,-18.98 14.29,-38.25 21.17,-57.57l20.69 -58 35.02 8.83c-6.93,41.49 -15.88,82.13 -26.56,122.91 -5.21,20.43 -11.25,40.69 -18.15,61.14 -3.44,10.25 -7.28,20.46 -11.7,30.87 -4.59,10.5 -9.14,20.85 -17.27,32.88 -2.13,3.05 -4.55,6.26 -7.93,9.8 -3.57,3.49 -7.68,7.71 -16.56,11.7 -4.41,1.9 -10.56,3.59 -17.64,3.3 -7.06,-0.2 -14.22,-2.71 -19.18,-5.78 -10.07,-6.43 -13.55,-12.56 -16.53,-17.16 -1.38,-2.31 -2.56,-4.69 -3.38,-6.41l-1.72 -3.52 -3.45 -7.05 -6.87 -14.12c-8.98,-18.91 -17.78,-37.92 -26.12,-57.15 -8.25,-19.27 -16.3,-38.64 -24.1,-58.17 -7.47,-19.82 -14.84,-39.03 -21.41,-60.11l69.31 -22.6z"/>
     <path fill="#3F7BFF" fill-rule="nonzero" d="M1519.54 1324.06c34.81,8.29 73.92,111.13 73.92,111.13l-103.45 88.15c0,0 -67.04,-112.15 -53.48,-149.17 14.13,-38.56 37.54,-60.94 83.01,-50.11z"/>
     <path fill="#E4897B" fill-rule="nonzero" d="M1699.33 1329.07l36.3 -30.37 25.25 39.35 -18.61 32.86c0,0 -29.62,27.12 -55.86,13.32 -8.45,-19.21 -3.19,-41.69 12.91,-55.16z"/>
     <polygon fill="#E4897B" fill-rule="nonzero" points="1801.54,1298.8 1798.82,1308.7 1741.31,1318.36 1735.64,1298.71 "/>
     <polygon fill="#3F7BFF" fill-rule="nonzero" points="1475.99,2872.88 1372.22,2805.75 1390.8,2773.44 1507.43,2845.13 "/>
     <path fill="#263138" fill-rule="nonzero" d="M1299.51 2926.25c-8.25,0 -19.12,-5.23 -25.69,-8.89 -0.59,-0.33 -0.93,-0.97 -0.86,-1.65 0.06,-0.67 0.53,-1.23 1.17,-1.44 2.8,-0.88 27.42,-8.43 34.39,-2.57 1.09,0.93 2.33,2.64 1.93,5.48 -0.51,3.78 -2.24,6.43 -5.13,7.87 -1.68,0.84 -3.66,1.2 -5.82,1.2zm-20.44 -9.91l0 0c11.29,5.75 20.37,7.86 24.74,5.69 1.86,-0.93 2.94,-2.66 3.3,-5.31 0.19,-1.42 -0.31,-2.05 -0.78,-2.44 -3.66,-3.08 -17.31,-0.68 -27.27,2.05z"/>
     <path fill="#263138" fill-rule="nonzero" d="M1274.63 2917.57c-0.46,0 -0.89,-0.18 -1.21,-0.51 -0.42,-0.44 -0.57,-1.06 -0.41,-1.63 0.24,-0.84 5.91,-20.58 15.24,-25.07 2.49,-1.2 5.02,-1.26 7.49,-0.23 3.93,1.65 4.31,4.52 4.18,6.09 -0.64,8.17 -17.29,19.45 -24.89,21.31 -0.13,0.03 -0.27,0.05 -0.4,0.05zm17.62 -24.79l0 0c-0.84,0 -1.68,0.21 -2.54,0.62 -5.56,2.68 -10.24,13.33 -12.47,19.81 8,-3.37 18.92,-12.29 19.31,-17.27 0.06,-0.81 -0.12,-1.86 -2.13,-2.7 -0.73,-0.31 -1.46,-0.47 -2.18,-0.47z"/>
     <path fill="#263138" fill-rule="nonzero" d="M1429.34 2965.53c-10.23,0 -24.51,-13.15 -32.31,-21.23 -0.5,-0.52 -0.62,-1.3 -0.3,-1.93 0.33,-0.64 1.15,-1 1.72,-0.92 3.59,0.47 35.2,4.74 39.67,13.66 0.86,1.72 0.79,3.57 -0.21,5.32 -1.67,2.94 -4.09,4.63 -7.2,5.02 -0.45,0.06 -0.91,0.09 -1.38,0.09zm-26.33 -20.01l0 0c11.48,11.16 21.52,17.34 27.29,16.57 2.02,-0.26 3.55,-1.34 4.68,-3.34 0.44,-0.77 0.47,-1.43 0.12,-2.13 -2.43,-4.86 -19.3,-9.05 -32.09,-11.1z"/>
     <path fill="#263138" fill-rule="nonzero" d="M1404 2945.23c-2.34,0 -4.42,-0.14 -6.07,-0.46 -0.58,-0.11 -1.07,-0.52 -1.28,-1.07 -0.2,-0.57 -0.1,-1.2 0.28,-1.66 0.52,-0.63 12.81,-15.45 24.43,-16.47 3.64,-0.28 6.71,0.68 9.35,2.93 3.58,3.07 3.33,5.79 2.49,7.54 -2.88,6.06 -18.59,9.19 -29.2,9.19zm-2.34 -3.41l0 0c10.15,0.56 26.39,-2.81 28.5,-7.23 0.18,-0.37 0.72,-1.5 -1.63,-3.51 -1.96,-1.68 -4.23,-2.38 -6.86,-2.14 -7.63,0.67 -16.14,8.76 -20.01,12.89z"/>
     <path fill="#3F7BFF" fill-rule="nonzero" d="M1277.13 2908.01l-77.08 -21.79c-2.81,-0.79 -5.63,0.51 -6.8,3.14l-26.02 58.51c-2.7,6.07 1.05,13.59 7.55,15.31 27,7.14 40.4,9.22 74.3,18.8 20.85,5.89 50.71,16.67 79.51,24.82 28.17,7.96 38.38,-19.9 27.12,-25.87 -50.5,-26.76 -54.49,-45.11 -68.3,-65.45 -2.49,-3.67 -6.17,-6.3 -10.28,-7.46z"/>
     <path fill="#3F7BFF" fill-rule="nonzero" d="M1399.12 2933.68l-65.8 -45.69c-2.4,-1.66 -5.49,-1.35 -7.45,0.76l-43.64 46.86c-4.53,4.86 -3.43,13.19 2.16,16.93 23.21,15.53 35.21,21.86 64.14,41.95 17.8,12.36 53.34,39.78 77.92,56.84 24.05,16.69 42.77,-6.33 34.07,-15.64 -39.05,-41.74 -47.66,-67.89 -54.11,-91.62 -1.16,-4.28 -3.79,-7.97 -7.29,-10.4z"/>
     <polygon fill="#3F7BFF" fill-rule="nonzero" points="1345.78,2849.1 1227.12,2790.12 1239.4,2758.01 1366.06,2820.1 "/>
     <g>
      <path fill="#3F7BFF" fill-rule="nonzero" d="M1191.54 1737.41l-10.04 25.92c-1.02,2.01 1.37,4.06 4.71,4.06l300.68 0c2.61,0 4.77,-1.28 4.94,-2.92l2.61 -25.92c0.18,-1.8 -2.08,-3.32 -4.94,-3.32l-293.25 0c-2.16,0 -4.07,0.88 -4.72,2.17z"/>
      <path fill="white" fill-rule="nonzero" fill-opacity="0.400000" d="M1191.54 1737.41l-10.04 25.92c-1.02,2.01 1.37,4.06 4.71,4.06l300.68 0c2.61,0 4.77,-1.28 4.94,-2.92l2.61 -25.92c0.18,-1.8 -2.08,-3.32 -4.94,-3.32l-293.25 0c-2.16,0 -4.07,0.88 -4.72,2.17z"/>
     </g>
     <g>
      <path fill="#3F7BFF" fill-rule="nonzero" d="M1238.83 1770.2l-7.85 0c-1.56,0 -2.76,-0.81 -2.65,-1.79l3.68 -33.68c0.11,-0.99 1.48,-1.79 3.04,-1.79l7.86 0c1.56,0 2.75,0.8 2.65,1.79l-3.68 33.68c-0.11,0.99 -1.47,1.79 -3.04,1.79z"/>
      <path fill="#3F7BFF" fill-rule="nonzero" d="M1424.3 1770.2l-7.86 0c-1.56,0 -2.76,-0.81 -2.65,-1.79l3.68 -33.68c0.11,-0.99 1.48,-1.79 3.04,-1.79l7.85 0c1.56,0 2.76,0.8 2.65,1.79l-3.68 33.68c-0.11,0.99 -1.48,1.79 -3.04,1.79z"/>
     </g>
    </g>
    <g>
     <g>
      <path fill="#F4F4F4" fill-rule="nonzero" d="M988.42 3291.76c-0.45,9.76 108.21,17.68 242.68,17.68 134.48,0.01 243.86,-7.9 244.3,-17.66 0.45,-9.76 -108.2,-17.68 -242.68,-17.68 -134.48,-0.01 -243.85,7.9 -244.3,17.66z"/>
      <path fill="#DFDFDF" fill-rule="nonzero" d="M1380.3 3266.84c-43.08,-12.51 -90.49,-28.62 -119.83,-45.75 -0.82,-0.48 -1.68,-0.82 -2.51,-1.25l0 -194.76 86.65 0c14.33,0 25.94,-11.61 25.94,-25.94 0,-14.33 -11.61,-25.94 -25.94,-25.94l-86.65 0 0 -889.07 -51.89 0 0 889.07 -86.65 0c-14.33,0 -25.94,11.61 -25.94,25.94 0,14.33 11.61,25.94 25.94,25.94l86.65 0 0 194.75c-0.83,0.43 -1.7,0.78 -2.51,1.25 -29.34,17.13 -76.75,33.25 -119.83,45.75 -14.13,4.1 -11.15,24.92 3.57,24.92l144.72 0 144.72 0c14.72,0 17.7,-20.81 3.57,-24.92z"/>
     </g>
     <g>
      <path fill="#3F7BFF" fill-rule="nonzero" d="M1393.63 2183.92l-323.23 0c-25.89,0 -47.08,-21.19 -47.08,-47.08l0 -96.09c0,-25.89 21.19,-47.08 47.08,-47.08l323.23 0c25.89,0 47.08,21.18 47.08,47.08l0 96.09c0,25.89 -21.18,47.08 -47.08,47.08z"/>
      <g>
       <path fill="#3F7BFF" fill-rule="nonzero" d="M1067.43 2183.92l0 16.54c0,13.63 14.84,24.79 32.97,24.79l263.23 0c18.14,0 32.97,-11.16 32.97,-24.79l0 -16.54 -329.18 0z"/>
       <path fill="white" fill-rule="nonzero" fill-opacity="0.301961" d="M1067.43 2183.92l0 16.54c0,13.63 14.84,24.79 32.97,24.79l263.23 0c18.14,0 32.97,-11.16 32.97,-24.79l0 -16.54 -329.18 0z"/>
      </g>
     </g>
    </g>
   </g>
  </g>
 </g>
</svg>
